<?xml version="1.0" encoding="UTF-8"?>
<svg version="1.1" xmlns="http://www.w3.org/2000/svg" width="128" height="128">
<path d="M0 0 C1.0094165 -0.0112793 2.01883301 -0.02255859 3.05883789 -0.03417969 C4.16026123 -0.02608276 5.26168457 -0.01798584 6.39648438 -0.00964355 C7.56107178 -0.01665283 8.72565918 -0.02366211 9.92553711 -0.03088379 C13.78067771 -0.04850975 17.63508612 -0.03682384 21.49023438 -0.02331543 C24.1653739 -0.026009 26.84049107 -0.02988396 29.515625 -0.03491211 C35.12442987 -0.0421874 40.733024 -0.03260414 46.34179688 -0.0135498 C52.82441344 0.008219 59.30652679 0.00116752 65.78913116 -0.02085543 C71.35700027 -0.03901302 76.92471797 -0.04156609 82.49260712 -0.03110075 C85.81719107 -0.02486765 89.14148689 -0.02559741 92.46606445 -0.0372467 C96.17238595 -0.04738291 99.87773545 -0.03195028 103.58398438 -0.00964355 C104.68540771 -0.01774048 105.78683105 -0.0258374 106.92163086 -0.03417969 C108.43575562 -0.01726074 108.43575562 -0.01726074 109.98046875 0 C110.85650757 0.0015081 111.73254639 0.0030162 112.63513184 0.00457001 C115.825886 0.68654141 117.0195273 1.94847285 118.99023438 4.50793457 C119.49080563 6.53507233 119.49080563 6.53507233 119.49143982 8.72045898 C119.50127396 9.55317825 119.51110809 10.38589752 119.52124023 11.24385071 C119.51157227 12.14890854 119.5019043 13.05396637 119.49194336 13.9864502 C119.50004784 15.42609383 119.50004784 15.42609383 119.50831604 16.89482117 C119.52082627 20.06825571 119.50429664 23.24078711 119.48632812 26.41418457 C119.48648306 28.61849007 119.48797111 30.82279584 119.49073792 33.02709961 C119.49212294 37.64729858 119.47954621 42.2671875 119.45678711 46.8873291 C119.42840245 52.81260056 119.43113856 58.73735674 119.44387722 64.66266632 C119.45082882 69.21454273 119.443051 73.76629983 119.43062019 78.31816101 C119.42610066 80.50306236 119.42577326 82.6879765 119.42968559 84.87287903 C119.43259266 87.92532654 119.41611449 90.97706142 119.39428711 94.02941895 C119.40103958 95.38700569 119.40103958 95.38700569 119.40792847 96.77201843 C119.36492713 100.38730034 119.3278378 102.85369917 117.65248108 106.1003418 C115.99023438 107.50793457 115.99023438 107.50793457 112.99023438 107.50793457 C112.84585938 108.14730957 112.70148438 108.78668457 112.55273438 109.44543457 C111.99023438 111.50793457 111.99023438 111.50793457 110.99023438 112.50793457 C108.32397407 112.59648618 105.68376323 112.6231813 103.01757812 112.60559082 C102.21993546 112.60417587 101.42229279 112.60276093 100.60047913 112.6013031 C98.04286002 112.59568774 95.4853272 112.58313269 92.92773438 112.57043457 C91.19791793 112.56542155 89.46810011 112.5608583 87.73828125 112.5567627 C83.48889885 112.54571332 79.23958126 112.52843843 74.99023438 112.50793457 C74.99023438 113.16793457 74.99023438 113.82793457 74.99023438 114.50793457 C75.60511719 114.46152832 76.22 114.41512207 76.85351562 114.36730957 C83.37087954 114.07626302 83.37087954 114.07626302 86.05273438 115.94543457 C87.44486936 119.75060353 87.41332823 123.49667935 86.99023438 127.50793457 C85.2110697 129.28709924 82.60710138 128.63558292 80.20117188 128.6373291 C78.96318848 128.64048126 77.72520508 128.64363342 76.44970703 128.6468811 C75.08821579 128.64509132 73.72672486 128.64304037 72.36523438 128.64074707 C70.97900373 128.64142016 69.59277321 128.64239023 68.20654297 128.64364624 C65.29784016 128.64512297 62.389168 128.64296947 59.48046875 128.63830566 C55.74426839 128.63260838 52.00813986 128.63588752 48.27194214 128.64187813 C45.40844172 128.64548442 42.54495844 128.64434484 39.68145752 128.64175034 C38.30348706 128.64108125 36.92551506 128.64190884 35.54754639 128.64422989 C33.62479683 128.64675749 31.70204186 128.64222481 29.77929688 128.6373291 C28.13501709 128.63613571 28.13501709 128.63613571 26.45751953 128.63491821 C23.99023437 128.50793457 23.99023437 128.50793457 22.99023438 127.50793457 C22.78710938 125.32824707 22.78710938 125.32824707 22.74023438 122.63293457 C22.71445312 121.7486377 22.68867188 120.86434082 22.66210938 119.95324707 C22.99023438 117.50793457 22.99023438 117.50793457 24.21289062 115.69934082 C26.5129208 114.15756235 27.93373447 114.20113023 30.67773438 114.32043457 C31.89009766 114.36104004 31.89009766 114.36104004 33.12695312 114.40246582 C33.74183594 114.43727051 34.35671875 114.4720752 34.99023438 114.50793457 C34.99023438 112.52793457 34.99023438 110.54793457 34.99023438 108.50793457 C28.72023437 108.50793457 22.45023438 108.50793457 15.99023438 108.50793457 C15.66023438 107.18793457 15.33023437 105.86793457 14.99023438 104.50793457 C15.99023438 103.50793457 15.99023438 103.50793457 19.86743164 103.39440918 C21.59717605 103.39456836 23.32692519 103.40026608 25.05664062 103.41027832 C25.96526352 103.41169327 26.87388641 103.41310822 27.81004333 103.41456604 C30.72430658 103.42018264 33.63849418 103.43273792 36.55273438 103.44543457 C38.52343639 103.45044743 40.49413961 103.45501071 42.46484375 103.45910645 C47.30666996 103.47015746 52.14843933 103.48743319 56.99023438 103.50793457 C57.32023437 101.19793457 57.65023437 98.88793457 57.99023438 96.50793457 C59.31023437 96.17793457 60.63023438 95.84793457 61.99023438 95.50793457 C61.99023438 94.51793457 61.99023438 93.52793457 61.99023438 92.50793457 C39.88023438 92.50793457 17.77023438 92.50793457 -5.00976562 92.50793457 C-4.34976562 95.80793457 -3.68976562 99.10793457 -3.00976562 102.50793457 C0.62023438 102.83793457 4.25023438 103.16793457 7.99023438 103.50793457 C8.32023437 104.82793457 8.65023438 106.14793457 8.99023438 107.50793457 C7.27576637 109.22240258 5.07681371 108.72044934 2.74023438 108.75793457 C-1.65719458 108.72366889 -4.5659385 108.49258474 -8.00976562 105.50793457 C-9.73734253 102.05278077 -9.17555509 98.06046445 -9.18676758 94.25646973 C-9.19333878 93.29699936 -9.19990997 92.33752899 -9.2066803 91.34898376 C-9.22643685 88.16498747 -9.23808008 84.98103835 -9.24804688 81.79699707 C-9.2521224 80.71160015 -9.25619793 79.62620323 -9.26039696 78.5079155 C-9.28126603 72.76508524 -9.29556511 67.02227894 -9.30493164 61.27941895 C-9.31600826 55.33838653 -9.35042044 49.39772741 -9.39010334 43.45682716 C-9.41620513 38.89640592 -9.42461767 34.33607456 -9.42821312 29.77558517 C-9.43309439 27.5850713 -9.44475186 25.39456184 -9.46325111 23.20412064 C-9.48750928 20.14183909 -9.486702 17.08053599 -9.47973633 14.01818848 C-9.49254639 13.10998856 -9.50535645 12.20178864 -9.51855469 11.2660675 C-9.51161087 10.43045792 -9.50466705 9.59484833 -9.49751282 8.73391724 C-9.49990117 8.010142 -9.50228952 7.28636677 -9.50475025 6.54065895 C-8.28133008 1.51651097 -4.80231908 0.0082672 0 0 Z M-5.00976562 8.50793457 C-5.00976562 13.12793457 -5.00976562 17.74793457 -5.00976562 22.50793457 C34.59023438 22.50793457 74.19023438 22.50793457 114.99023438 22.50793457 C114.99023438 17.88793457 114.99023438 13.26793457 114.99023438 8.50793457 C111.10799897 4.29787387 111.10799897 4.29787387 106.28417969 4 C104.87102478 3.98308105 104.87102478 3.98308105 103.42932129 3.96582031 C102.40270386 3.97391724 101.37608643 3.98201416 100.31835938 3.99035645 C98.68852112 3.97984253 98.68852112 3.97984253 97.02575684 3.96911621 C93.43032353 3.95149589 89.83567584 3.96317399 86.24023438 3.97668457 C83.74446461 3.97399084 81.24869586 3.97010941 78.75292969 3.96508789 C73.52075162 3.95918736 68.28877829 3.96739311 63.05664062 3.9864502 C57.01026426 4.00821888 50.96442741 4.00116733 44.91806412 3.97914457 C39.09810471 3.9587961 33.27835017 3.96096163 27.45837402 3.97267151 C24.98319422 3.97534302 22.50800068 3.97205421 20.03283691 3.9627533 C16.57555478 3.95261348 13.11931381 3.96805438 9.66210938 3.99035645 C8.63549194 3.98225952 7.60887451 3.9741626 6.55114746 3.96582031 C5.60904419 3.97709961 4.66694092 3.98837891 3.69628906 4 C2.47072296 4.00226215 2.47072296 4.00226215 1.22039795 4.00457001 C-1.66000092 4.44607303 -1.66000092 4.44607303 -5.00976562 8.50793457 Z M-5.00976562 26.50793457 C-5.00976562 46.96793457 -5.00976562 67.42793457 -5.00976562 88.50793457 C15.45023438 88.50793457 35.91023438 88.50793457 56.99023438 88.50793457 C57.32023437 84.21793457 57.65023437 79.92793457 57.99023438 75.50793457 C59.31023437 75.17793457 60.63023438 74.84793457 61.99023438 74.50793457 C61.99023438 73.51793457 61.99023438 72.52793457 61.99023438 71.50793457 C60.50523438 71.01293457 60.50523438 71.01293457 58.99023438 70.50793457 C57.68563524 67.89873629 57.85757497 65.91850842 57.86523438 63.00793457 C57.86265625 62.02824707 57.86007813 61.04855957 57.85742188 60.03918457 C57.99023438 57.50793457 57.99023438 57.50793457 58.99023438 55.50793457 C68.56023437 55.50793457 78.13023438 55.50793457 87.99023438 55.50793457 C87.99023438 56.49793457 87.99023438 57.48793457 87.99023438 58.50793457 C79.41023438 58.83793457 70.83023438 59.16793457 61.99023438 59.50793457 C61.99023438 62.14793457 61.99023438 64.78793457 61.99023438 67.50793457 C77.17023438 67.50793457 92.35023437 67.50793457 107.99023438 67.50793457 C107.99023438 64.86793457 107.99023438 62.22793457 107.99023438 59.50793457 C102.54523438 59.01293457 102.54523438 59.01293457 96.99023438 58.50793457 C96.49523437 56.52793457 96.49523437 56.52793457 95.99023438 54.50793457 C98.46983573 54.64817677 100.9487584 54.79485307 103.42773438 54.94543457 C104.13478516 54.98475098 104.84183594 55.02406738 105.5703125 55.0645752 C110.87695312 55.39465332 110.87695312 55.39465332 111.99023438 56.50793457 C112.06337004 59.03842859 112.08270965 61.54098294 112.05273438 64.07043457 C112.04822266 64.78135254 112.04371094 65.49227051 112.0390625 66.22473145 C112.02724302 67.9858347 112.00930701 69.74689493 111.99023438 71.50793457 C110.67023438 71.50793457 109.35023437 71.50793457 107.99023438 71.50793457 C107.99023438 72.49793457 107.99023438 73.48793457 107.99023438 74.50793457 C108.63476562 74.71160645 109.27929688 74.91527832 109.94335938 75.12512207 C111.99023438 76.50793457 111.99023438 76.50793457 112.59960938 79.32824707 C112.64601563 80.41879395 112.69242187 81.50934082 112.74023438 82.63293457 C112.79695313 83.7286377 112.85367188 84.82434082 112.91210938 85.95324707 C112.93789062 86.79629395 112.96367188 87.63934082 112.99023438 88.50793457 C113.65023437 88.50793457 114.31023437 88.50793457 114.99023438 88.50793457 C114.99023438 68.04793457 114.99023438 47.58793457 114.99023438 26.50793457 C75.39023438 26.50793457 35.79023437 26.50793457 -5.00976562 26.50793457 Z M66.99023438 71.50793457 C66.99023438 72.49793457 66.99023438 73.48793457 66.99023438 74.50793457 C78.87023437 74.50793457 90.75023438 74.50793457 102.99023438 74.50793457 C102.99023438 73.51793457 102.99023438 72.52793457 102.99023438 71.50793457 C91.11023438 71.50793457 79.23023437 71.50793457 66.99023438 71.50793457 Z M61.99023438 79.50793457 C61.99023438 82.14793457 61.99023438 84.78793457 61.99023438 87.50793457 C77.17023438 87.50793457 92.35023437 87.50793457 107.99023438 87.50793457 C107.99023438 84.86793457 107.99023438 82.22793457 107.99023438 79.50793457 C92.81023437 79.50793457 77.63023438 79.50793457 61.99023438 79.50793457 Z M66.99023438 92.50793457 C66.99023438 93.49793457 66.99023438 94.48793457 66.99023438 95.50793457 C78.87023437 95.50793457 90.75023438 95.50793457 102.99023438 95.50793457 C102.99023438 94.51793457 102.99023438 93.52793457 102.99023438 92.50793457 C91.11023438 92.50793457 79.23023437 92.50793457 66.99023438 92.50793457 Z M107.99023438 92.50793457 C107.99023438 93.49793457 107.99023438 94.48793457 107.99023438 95.50793457 C108.94929688 95.84824707 108.94929688 95.84824707 109.92773438 96.19543457 C111.99023438 97.50793457 111.99023438 97.50793457 112.74023438 100.13293457 C112.82273437 100.91668457 112.90523438 101.70043457 112.99023438 102.50793457 C115.17355126 100.74657102 115.17355126 100.74657102 115.18554688 98.56262207 C115.16234375 97.8433252 115.13914062 97.12402832 115.11523438 96.38293457 C115.07398437 95.10418457 115.03273438 93.82543457 114.99023438 92.50793457 C112.68023437 92.50793457 110.37023437 92.50793457 107.99023438 92.50793457 Z M61.99023438 99.50793457 C61.99023438 102.47793457 61.99023438 105.44793457 61.99023438 108.50793457 C77.17023438 108.50793457 92.35023437 108.50793457 107.99023438 108.50793457 C107.99023438 105.53793457 107.99023438 102.56793457 107.99023438 99.50793457 C92.81023437 99.50793457 77.63023438 99.50793457 61.99023438 99.50793457 Z M39.99023438 108.50793457 C39.99023438 110.48793457 39.99023438 112.46793457 39.99023438 114.50793457 C49.89023437 114.50793457 59.79023437 114.50793457 69.99023438 114.50793457 C69.99023438 113.84793457 69.99023438 113.18793457 69.99023438 112.50793457 C69.219375 112.47055176 68.44851562 112.43316895 67.65429688 112.39465332 C66.65140625 112.32891113 65.64851563 112.26316895 64.61523438 112.19543457 C63.6175 112.13742676 62.61976562 112.07941895 61.59179688 112.01965332 C60.73328125 111.85078613 59.87476562 111.68191895 58.99023438 111.50793457 C58.33023438 110.51793457 57.67023438 109.52793457 56.99023438 108.50793457 C54.03959289 108.28707817 51.30655207 108.22732468 48.36523438 108.32043457 C47.16253906 108.3407373 47.16253906 108.3407373 45.93554688 108.3614502 C43.9534906 108.39684406 41.97177886 108.45065224 39.99023438 108.50793457 Z M28.18406677 119.8427124 C26.69890668 121.57280238 26.69890668 121.57280238 26.99023438 124.50793457 C45.14023438 124.50793457 63.29023438 124.50793457 81.99023438 124.50793457 C81.99023438 122.85793457 81.99023438 121.20793457 81.99023438 119.50793457 C79.5502708 118.28795278 77.94842289 118.36809139 75.22094727 118.34680176 C73.73414207 118.33239044 73.73414207 118.33239044 72.21730042 118.31768799 C71.14334518 118.31343811 70.06938995 118.30918823 68.96289062 118.30480957 C67.31310463 118.29625946 67.31310463 118.29625946 65.62998962 118.28753662 C63.30061813 118.27807901 60.97123321 118.27154963 58.6418457 118.2677002 C55.07089039 118.25798397 51.50050789 118.22696282 47.9296875 118.19543457 C45.6699253 118.18890581 43.41015898 118.18365484 41.15039062 118.17980957 C40.07845963 118.16746277 39.00652863 118.15511597 37.90211487 118.14239502 C36.41058144 118.14689667 36.41058144 118.14689667 34.88891602 118.15148926 C34.01336563 118.14784363 33.13781525 118.144198 32.23573303 118.14044189 C29.92582307 118.34300235 29.92582307 118.34300235 28.18406677 119.8427124 Z " fill="#FFD76A" transform="translate(9.009765625,-0.5079345703125)"/>
<path d="M0 0 C14.19 0 28.38 0 43 0 C43.495 1.98 43.495 1.98 44 4 C43 5 43 5 39.03100586 5.11352539 C37.25894393 5.1133662 35.4868774 5.10766785 33.71484375 5.09765625 C32.78402481 5.0962413 31.85320587 5.09482635 30.8941803 5.09336853 C27.90858809 5.08775172 24.92306971 5.0751964 21.9375 5.0625 C19.91862087 5.05748716 17.89974057 5.05292388 15.88085938 5.04882812 C10.92054428 5.03777683 5.96028468 5.02050095 1 5 C0.67 3.35 0.34 1.7 0 0 Z " fill="#FFD76A" transform="translate(55,37)"/>
<path d="M0 0 C2.82990581 1.97759166 5.02893079 4.16473829 7 7 C7.36152385 10.79600047 6.0753892 11.90627289 3.6875 14.875 C1 17 1 17 -1.3125 16.8125 C-1.869375 16.544375 -2.42625 16.27625 -3 16 C-2.37240135 13.07120629 -1.41377341 10.63904371 0 8 C-1.32 7.01 -2.64 6.02 -4 5 C-4.20496094 5.69867188 -4.40992188 6.39734375 -4.62109375 7.1171875 C-4.89050781 8.02726562 -5.15992188 8.93734375 -5.4375 9.875 C-5.83775391 11.23238281 -5.83775391 11.23238281 -6.24609375 12.6171875 C-7 15 -7 15 -8 17 C-9.32 17 -10.64 17 -12 17 C-11.47706548 11.1431334 -10.36818784 6.39946827 -8 1 C-5.00027454 -0.49986273 -3.34485121 -0.5048832 0 0 Z " fill="#FFD769" transform="translate(31,31)"/>
<path d="M0 0 C1.5631897 0.00785522 1.5631897 0.00785522 3.15795898 0.01586914 C4.28266602 0.0190918 5.40737305 0.02231445 6.56616211 0.02563477 C7.75016602 0.03401367 8.93416992 0.04239258 10.15405273 0.05102539 C11.34192383 0.05553711 12.52979492 0.06004883 13.75366211 0.06469727 C16.69967499 0.07652864 19.64558954 0.09301252 22.59155273 0.11352539 C22.92155273 1.76352539 23.25155273 3.41352539 23.59155273 5.11352539 C15.01155273 5.11352539 6.43155273 5.11352539 -2.40844727 5.11352539 C-2.73844727 3.79352539 -3.06844727 2.47352539 -3.40844727 1.11352539 C-2.40844727 0.11352539 -2.40844727 0.11352539 0 0 Z " fill="#FFD869" transform="translate(31.408447265625,53.886474609375)"/>
<path d="M0 0 C1.9375 1.625 1.9375 1.625 3 4 C2.875 7.125 2.875 7.125 2 10 C-1.23253796 12.15502531 -2.25150923 12.46856135 -6 12 C-7.8125 10.875 -7.8125 10.875 -9 9 C-9.39365568 5.85075452 -9.52854531 3.88090884 -7.875 1.125 C-5.08893958 -0.54663625 -3.18011138 -0.46376624 0 0 Z M-4 5 C-4 5.66 -4 6.32 -4 7 C-3.34 7 -2.68 7 -2 7 C-2 6.34 -2 5.68 -2 5 C-2.66 5 -3.32 5 -4 5 Z " fill="#FFD76B" transform="translate(45,7)"/>
<path d="M0 0 C1.9375 1.625 1.9375 1.625 3 4 C2.875 7.125 2.875 7.125 2 10 C-1.23253796 12.15502531 -2.25150923 12.46856135 -6 12 C-7.8125 10.875 -7.8125 10.875 -9 9 C-9.39365568 5.85075452 -9.52854531 3.88090884 -7.875 1.125 C-5.08893958 -0.54663625 -3.18011138 -0.46376624 0 0 Z M-4 5 C-4 5.66 -4 6.32 -4 7 C-3.34 7 -2.68 7 -2 7 C-2 6.34 -2 5.68 -2 5 C-2.66 5 -3.32 5 -4 5 Z " fill="#FFD76B" transform="translate(31,7)"/>
<path d="M0 0 C1.9375 1.625 1.9375 1.625 3 4 C2.875 7.125 2.875 7.125 2 10 C-1.23253796 12.15502531 -2.25150923 12.46856135 -6 12 C-7.8125 10.875 -7.8125 10.875 -9 9 C-9.39365568 5.85075452 -9.52854531 3.88090884 -7.875 1.125 C-5.08893958 -0.54663625 -3.18011138 -0.46376624 0 0 Z M-4 5 C-4 5.66 -4 6.32 -4 7 C-3.34 7 -2.68 7 -2 7 C-2 6.34 -2 5.68 -2 5 C-2.66 5 -3.32 5 -4 5 Z " fill="#FFD76B" transform="translate(17,7)"/>
<path d="M0 0 C0.99 0.33 1.98 0.66 3 1 C2.45276317 4.37462715 1.9451 6.08235 0 9 C0.495 9.391875 0.99 9.78375 1.5 10.1875 C3.45593143 12.55091715 3.24207973 14.01435003 3 17 C-0.52775489 16.69762101 -2.03808865 15.97019149 -4.875 13.75 C-7 11 -7 11 -7.1875 8.5625 C-5.47377346 4.86445851 -3.00278515 2.74722897 0 0 Z " fill="#FFDA68" transform="translate(15,31)"/>
<path d="M0 0 C0.83265381 0.00523682 1.66530762 0.01047363 2.52319336 0.01586914 C3.42231445 0.0190918 4.32143555 0.02231445 5.24780273 0.02563477 C6.66609375 0.03820312 6.66609375 0.03820312 8.11303711 0.05102539 C9.06243164 0.05553711 10.01182617 0.06004883 10.98999023 0.06469727 C13.34356776 0.07652429 15.69702188 0.09300514 18.05053711 0.11352539 C18.38053711 1.10352539 18.71053711 2.09352539 19.05053711 3.11352539 C17.05053711 5.11352539 17.05053711 5.11352539 15.17114258 5.34057617 C14.42751465 5.33010254 13.68388672 5.31962891 12.91772461 5.30883789 C12.11206055 5.30239258 11.30639648 5.29594727 10.47631836 5.28930664 C9.63456055 5.27254883 8.79280273 5.25579102 7.92553711 5.23852539 C6.65129883 5.22499023 6.65129883 5.22499023 5.35131836 5.21118164 C3.25093827 5.18758186 1.15070267 5.15171022 -0.94946289 5.11352539 C-1.60946289 3.79352539 -2.26946289 2.47352539 -2.94946289 1.11352539 C-1.94946289 0.11352539 -1.94946289 0.11352539 0 0 Z " fill="#FFD76A" transform="translate(45.949462890625,69.886474609375)"/>
<path d="M0 0 C1.18613892 0.00785522 1.18613892 0.00785522 2.39624023 0.01586914 C3.67724609 0.02070312 3.67724609 0.02070312 4.98413086 0.02563477 C5.88196289 0.03401367 6.77979492 0.04239258 7.70483398 0.05102539 C8.6065332 0.05553711 9.50823242 0.06004883 10.43725586 0.06469727 C12.67234712 0.07652315 14.90730835 0.09300319 17.14233398 0.11352539 C17.70483398 2.05102539 17.70483398 2.05102539 18.14233398 4.11352539 C17.14233398 5.11352539 17.14233398 5.11352539 15.28466797 5.22705078 C14.49390869 5.22181396 13.70314941 5.21657715 12.88842773 5.21118164 C12.03442383 5.20795898 11.18041992 5.20473633 10.30053711 5.20141602 C9.40270508 5.19303711 8.50487305 5.1846582 7.57983398 5.17602539 C6.67813477 5.17151367 5.77643555 5.16700195 4.84741211 5.16235352 C2.61232085 5.15052764 0.37735962 5.13404759 -1.85766602 5.11352539 C-2.42016602 3.17602539 -2.42016602 3.17602539 -2.85766602 1.11352539 C-1.85766602 0.11352539 -1.85766602 0.11352539 0 0 Z " fill="#FFD76A" transform="translate(23.857666015625,61.886474609375)"/>
<path d="M0 0 C1.18613892 0.00785522 1.18613892 0.00785522 2.39624023 0.01586914 C3.67724609 0.02070312 3.67724609 0.02070312 4.98413086 0.02563477 C5.88196289 0.03401367 6.77979492 0.04239258 7.70483398 0.05102539 C8.6065332 0.05553711 9.50823242 0.06004883 10.43725586 0.06469727 C12.67234712 0.07652315 14.90730835 0.09300319 17.14233398 0.11352539 C17.70483398 2.05102539 17.70483398 2.05102539 18.14233398 4.11352539 C17.14233398 5.11352539 17.14233398 5.11352539 15.28466797 5.22705078 C14.49390869 5.22181396 13.70314941 5.21657715 12.88842773 5.21118164 C12.03442383 5.20795898 11.18041992 5.20473633 10.30053711 5.20141602 C9.40270508 5.19303711 8.50487305 5.1846582 7.57983398 5.17602539 C6.67813477 5.17151367 5.77643555 5.16700195 4.84741211 5.16235352 C2.61232085 5.15052764 0.37735962 5.13404759 -1.85766602 5.11352539 C-2.42016602 3.17602539 -2.42016602 3.17602539 -2.85766602 1.11352539 C-1.85766602 0.11352539 -1.85766602 0.11352539 0 0 Z " fill="#FFD66B" transform="translate(74.857666015625,44.886474609375)"/>
<path d="M0 0 C1.48831242 0.00667405 2.97660807 0.01863442 4.46484375 0.03515625 C5.22345703 0.03966797 5.98207031 0.04417969 6.76367188 0.04882812 C8.64326246 0.06064945 10.52281274 0.07858547 12.40234375 0.09765625 C12.96484375 2.03515625 12.96484375 2.03515625 13.40234375 4.09765625 C12.40234375 5.09765625 12.40234375 5.09765625 8.8046875 5.1953125 C7.31637508 5.18863845 5.82807943 5.17667808 4.33984375 5.16015625 C3.58123047 5.15564453 2.82261719 5.15113281 2.04101562 5.14648438 C0.16142504 5.13466305 -1.71812524 5.11672703 -3.59765625 5.09765625 C-4.16015625 3.16015625 -4.16015625 3.16015625 -4.59765625 1.09765625 C-3.59765625 0.09765625 -3.59765625 0.09765625 0 0 Z " fill="#FFD66B" transform="translate(45.59765625,44.90234375)"/>
<path d="M0 0 C5.28 0 10.56 0 16 0 C16 1.32 16 2.64 16 4 C15 5 15 5 11.91015625 5.1328125 C10.64042969 5.13023438 9.37070312 5.12765625 8.0625 5.125 C6.16177734 5.12886719 6.16177734 5.12886719 4.22265625 5.1328125 C1 5 1 5 -1 4 C-0.67 2.68 -0.34 1.36 0 0 Z " fill="#FFD769" transform="translate(25,70)"/>
<path d="M0 0 C4.95 0 9.9 0 15 0 C15.33 1.65 15.66 3.3 16 5 C10.39 5 4.78 5 -1 5 C-0.67 3.35 -0.34 1.7 0 0 Z " fill="#FFD86A" transform="translate(99,60)"/>
<path d="M0 0 C1.39456452 0.00667256 2.78911118 0.01863093 4.18359375 0.03515625 C4.89451172 0.03966797 5.60542969 0.04417969 6.33789062 0.04882812 C8.09899388 0.06064761 9.86005411 0.07858362 11.62109375 0.09765625 C12.18359375 2.03515625 12.18359375 2.03515625 12.62109375 4.09765625 C11.62109375 5.09765625 11.62109375 5.09765625 8.2421875 5.1953125 C6.84762298 5.18863994 5.45307632 5.17668157 4.05859375 5.16015625 C3.34767578 5.15564453 2.63675781 5.15113281 1.90429688 5.14648438 C0.14319362 5.13466489 -1.61786661 5.11672888 -3.37890625 5.09765625 C-3.94140625 3.16015625 -3.94140625 3.16015625 -4.37890625 1.09765625 C-3.37890625 0.09765625 -3.37890625 0.09765625 0 0 Z " fill="#FFD76B" transform="translate(102.37890625,100.90234375)"/>
<path d="M0 0 C1.39456452 0.00667256 2.78911118 0.01863093 4.18359375 0.03515625 C4.89451172 0.03966797 5.60542969 0.04417969 6.33789062 0.04882812 C8.09899388 0.06064761 9.86005411 0.07858362 11.62109375 0.09765625 C12.18359375 2.03515625 12.18359375 2.03515625 12.62109375 4.09765625 C11.62109375 5.09765625 11.62109375 5.09765625 8.2421875 5.1953125 C6.84762298 5.18863994 5.45307632 5.17668157 4.05859375 5.16015625 C3.34767578 5.15564453 2.63675781 5.15113281 1.90429688 5.14648438 C0.14319362 5.13466489 -1.61786661 5.11672888 -3.37890625 5.09765625 C-3.94140625 3.16015625 -3.94140625 3.16015625 -4.37890625 1.09765625 C-3.37890625 0.09765625 -3.37890625 0.09765625 0 0 Z " fill="#FFD76B" transform="translate(13.37890625,53.90234375)"/>
<path d="M0 0 C5.61 0 11.22 0 17 0 C17 1.32 17 2.64 17 4 C11.39 4 5.78 4 0 4 C0 2.68 0 1.36 0 0 Z " fill="#FFD76B" transform="translate(98,81)"/>
<path d="M0 0 C4.62 0 9.24 0 14 0 C13.67 1.65 13.34 3.3 13 5 C9.04 5 5.08 5 1 5 C0.67 3.35 0.34 1.7 0 0 Z " fill="#FFD869" transform="translate(9,70)"/>
<path d="M0 0 C1.65322266 0.01740234 1.65322266 0.01740234 3.33984375 0.03515625 C4.99693359 0.04869141 4.99693359 0.04869141 6.6875 0.0625 C7.54214844 0.07410156 8.39679688 0.08570312 9.27734375 0.09765625 C9.83984375 2.03515625 9.83984375 2.03515625 10.27734375 4.09765625 C9.27734375 5.09765625 9.27734375 5.09765625 6.5546875 5.1953125 C4.90146484 5.17791016 4.90146484 5.17791016 3.21484375 5.16015625 C1.55775391 5.14662109 1.55775391 5.14662109 -0.1328125 5.1328125 C-0.98746094 5.12121094 -1.84210938 5.10960938 -2.72265625 5.09765625 C-3.28515625 3.16015625 -3.28515625 3.16015625 -3.72265625 1.09765625 C-2.72265625 0.09765625 -2.72265625 0.09765625 0 0 Z " fill="#FFD76B" transform="translate(76.72265625,100.90234375)"/>
<path d="M0 0 C1.65322266 0.01740234 1.65322266 0.01740234 3.33984375 0.03515625 C4.99693359 0.04869141 4.99693359 0.04869141 6.6875 0.0625 C7.54214844 0.07410156 8.39679688 0.08570313 9.27734375 0.09765625 C9.83984375 2.03515625 9.83984375 2.03515625 10.27734375 4.09765625 C9.27734375 5.09765625 9.27734375 5.09765625 6.5546875 5.1953125 C4.90146484 5.17791016 4.90146484 5.17791016 3.21484375 5.16015625 C1.55775391 5.14662109 1.55775391 5.14662109 -0.1328125 5.1328125 C-0.98746094 5.12121094 -1.84210938 5.10960938 -2.72265625 5.09765625 C-3.28515625 3.16015625 -3.28515625 3.16015625 -3.72265625 1.09765625 C-2.72265625 0.09765625 -2.72265625 0.09765625 0 0 Z " fill="#FFD66B" transform="translate(76.72265625,59.90234375)"/>
<path d="M0 0 C3.96 0 7.92 0 12 0 C12.33 1.32 12.66 2.64 13 4 C8.38 4 3.76 4 -1 4 C-0.67 2.68 -0.34 1.36 0 0 Z " fill="#FFD769" transform="translate(74,81)"/>
<path d="M0 0 C3.3 0 6.6 0 10 0 C10.33 1.32 10.66 2.64 11 4 C10 5 10 5 7.93359375 5.09765625 C7.10988281 5.08605469 6.28617188 5.07445312 5.4375 5.0625 C4.61121094 5.05347656 3.78492188 5.04445313 2.93359375 5.03515625 C2.29550781 5.02355469 1.65742187 5.01195312 1 5 C0.67 3.35 0.34 1.7 0 0 Z " fill="#FFD768" transform="translate(41,37)"/>
<path d="M0 0 C1.23556641 0.01740234 1.23556641 0.01740234 2.49609375 0.03515625 C3.32238281 0.04417969 4.14867187 0.05320313 5 0.0625 C5.63808594 0.07410156 6.27617188 0.08570313 6.93359375 0.09765625 C7.49609375 2.03515625 7.49609375 2.03515625 7.93359375 4.09765625 C6.93359375 5.09765625 6.93359375 5.09765625 4.8671875 5.1953125 C4.04347656 5.18371094 3.21976563 5.17210938 2.37109375 5.16015625 C1.54480469 5.15113281 0.71851563 5.14210938 -0.1328125 5.1328125 C-0.77089844 5.12121094 -1.40898438 5.10960938 -2.06640625 5.09765625 C-2.62890625 3.16015625 -2.62890625 3.16015625 -3.06640625 1.09765625 C-2.06640625 0.09765625 -2.06640625 0.09765625 0 0 Z " fill="#FFD76B" transform="translate(56.06640625,61.90234375)"/>
<path d="M0 0 C2.64 0 5.28 0 8 0 C8.5625 1.9375 8.5625 1.9375 9 4 C8 5 8 5 5.93359375 5.09765625 C5.10988281 5.08605469 4.28617187 5.07445312 3.4375 5.0625 C2.61121094 5.05347656 1.78492188 5.04445313 0.93359375 5.03515625 C0.29550781 5.02355469 -0.34257813 5.01195312 -1 5 C-0.67 3.35 -0.34 1.7 0 0 Z " fill="#FFD66B" transform="translate(62,45)"/>
<path d="M0 0 C2.05078125 0.03255208 4.1015625 0.06510417 6.15234375 0.09765625 C6.71484375 2.03515625 6.71484375 2.03515625 7.15234375 4.09765625 C6.15234375 5.09765625 6.15234375 5.09765625 4.3046875 5.1953125 C2.25390625 5.16276042 0.203125 5.13020833 -1.84765625 5.09765625 C-2.41015625 3.16015625 -2.41015625 3.16015625 -2.84765625 1.09765625 C-1.84765625 0.09765625 -1.84765625 0.09765625 0 0 Z " fill="#FFD76B" transform="translate(11.84765625,61.90234375)"/>
<path d="M0 0 C1.4540625 0.0309375 1.4540625 0.0309375 2.9375 0.0625 C3.5 2 3.5 2 3.9375 4.0625 C2.9375 5.0625 2.9375 5.0625 -0.125 5.125 C-1.094375 5.104375 -2.06375 5.08375 -3.0625 5.0625 C-3.625 3.125 -3.625 3.125 -4.0625 1.0625 C-3.0625 0.0625 -3.0625 0.0625 0 0 Z " fill="#FFD76B" transform="translate(48.0625,61.9375)"/>
<path d="M0 0 C1.98 0 3.96 0 6 0 C6.5625 1.9375 6.5625 1.9375 7 4 C6 5 6 5 2.9375 5.0625 C1.968125 5.041875 0.99875 5.02125 0 5 C-0.33 4.01 -0.66 3.02 -1 2 C-0.67 1.34 -0.34 0.68 0 0 Z " fill="#FFD76C" transform="translate(89,101)"/>
<path d="M0 0 C0.78375 0.04125 1.5675 0.0825 2.375 0.125 C2.9375 2.0625 2.9375 2.0625 3.375 4.125 C2.375 5.125 2.375 5.125 -0.6875 5.1875 C-1.656875 5.166875 -2.62625 5.14625 -3.625 5.125 C-3.955 4.135 -4.285 3.145 -4.625 2.125 C-2.625 0.125 -2.625 0.125 0 0 Z " fill="#FFD86B" transform="translate(92.625,59.875)"/>
<path d="M0 0 C2.31 0 4.62 0 7 0 C7 1.32 7 2.64 7 4 C4.69 4 2.38 4 0 4 C-0.33 3.34 -0.66 2.68 -1 2 C-0.67 1.34 -0.34 0.68 0 0 Z " fill="#FFD867" transform="translate(89,81)"/>
</svg>
