<?xml version="1.0" encoding="UTF-8"?>
<svg version="1.1" xmlns="http://www.w3.org/2000/svg" width="128" height="128">
<path d="M0 0 C2.39453125 1.39453125 2.39453125 1.39453125 4.4375 2.8359375 C5.02144531 3.16464844 5.60539062 3.49335938 6.20703125 3.83203125 C7.19703125 3.50203125 8.18703125 3.17203125 9.20703125 2.83203125 C19.54384961 1.69611714 19.54384961 1.69611714 23.70703125 4.89453125 C26.20703125 7.83203125 26.20703125 7.83203125 27.51953125 11.33203125 C29.63087822 15.71112126 31.87188762 16.85328798 36.05078125 19.08203125 C38.34385683 20.12549947 38.34385683 20.12549947 41.20703125 18.83203125 C46.87554665 18.33243328 51.61294027 18.07322954 56.20703125 21.83203125 C58.6158229 23.89670981 59.17034678 24.72197784 60.20703125 27.83203125 C60.24657359 30.1650295 60.25104857 32.49911314 60.20703125 34.83203125 C61.75390625 34.67734375 61.75390625 34.67734375 63.33203125 34.51953125 C68.40673226 34.92878133 69.66975808 36.29475808 73.20703125 39.83203125 C75.0693655 43.55669974 74.77833954 47.77698438 74.20703125 51.83203125 C72.53495655 54.95781268 70.42140775 57.224843 67.20703125 58.83203125 C64.32332792 58.90397994 61.46463461 58.92494833 58.58203125 58.89453125 C57.37933594 58.88776367 57.37933594 58.88776367 56.15234375 58.88085938 C54.17054119 58.86906293 52.18877692 58.8511273 50.20703125 58.83203125 C50.23023437 59.64027344 50.2534375 60.44851562 50.27734375 61.28125 C50.29539062 62.34988281 50.3134375 63.41851562 50.33203125 64.51953125 C50.35523437 65.57527344 50.3784375 66.63101563 50.40234375 67.71875 C50.11258636 72.33748278 48.75546958 75.71357716 45.58203125 79.08203125 C45.13601562 79.5821875 44.69 80.08234375 44.23046875 80.59765625 C42.20703125 81.83203125 42.20703125 81.83203125 34.20703125 82.83203125 C34.20703125 90.75203125 34.20703125 98.67203125 34.20703125 106.83203125 C35.52703125 106.83203125 36.84703125 106.83203125 38.20703125 106.83203125 C38.49968368 111.80712257 38.49556643 114.9577617 35.20703125 118.83203125 C32.51890296 119.34895033 30.44724659 119.51719034 27.75390625 119.47900391 C26.99750854 119.4877655 26.24111084 119.4965271 25.46179199 119.5055542 C22.95962281 119.52757476 20.4592186 119.51298772 17.95703125 119.49609375 C16.21972311 119.49946116 14.48241726 119.50431315 12.74511719 119.5105896 C9.10328756 119.51796447 5.46207091 119.50723612 1.8203125 119.48388672 C-2.85102118 119.45539801 -7.52091874 119.47179878 -12.19219971 119.50174904 C-15.7798955 119.51980576 -19.36725005 119.51407159 -22.95495605 119.50111008 C-24.67736989 119.49777153 -26.39981457 119.5018789 -28.12219238 119.51350784 C-30.52891232 119.52619066 -32.93329802 119.5068797 -35.33984375 119.47900391 C-36.05370239 119.48912506 -36.76756104 119.49924622 -37.50305176 119.50967407 C-39.49121094 119.46694946 -39.49121094 119.46694946 -42.79296875 118.83203125 C-46.08150393 114.9577617 -46.08562118 111.80712257 -45.79296875 106.83203125 C-44.47296875 106.83203125 -43.15296875 106.83203125 -41.79296875 106.83203125 C-41.80344238 105.5702002 -41.81391602 104.30836914 -41.82470703 103.00830078 C-41.86083774 98.33808211 -41.88384391 93.66787586 -41.90283203 88.99755859 C-41.91290546 86.97409998 -41.9265647 84.95065597 -41.94384766 82.92724609 C-41.96803722 80.02307536 -41.97943824 77.11909664 -41.98828125 74.21484375 C-41.99860382 73.30646759 -42.00892639 72.39809143 -42.01956177 71.46218872 C-42.01971283 70.6214682 -42.01986389 69.78074768 -42.02001953 68.91455078 C-42.02446075 68.17286652 -42.02890198 67.43118225 -42.03347778 66.66702271 C-41.79296875 64.83203125 -41.79296875 64.83203125 -39.79296875 62.83203125 C-37.50241089 62.59152222 -37.50241089 62.59152222 -34.60888672 62.60498047 C-32.9874324 62.60520706 -32.9874324 62.60520706 -31.33322144 62.60543823 C-29.57692917 62.62092209 -29.57692917 62.62092209 -27.78515625 62.63671875 C-25.99152145 62.64096359 -25.99152145 62.64096359 -24.16165161 62.64529419 C-20.33032356 62.6565182 -16.49922653 62.68162694 -12.66796875 62.70703125 C-10.0755242 62.71705817 -7.483076 62.72618452 -4.890625 62.734375 C1.47533967 62.75646479 7.84116896 62.78996419 14.20703125 62.83203125 C14.20703125 61.51203125 14.20703125 60.19203125 14.20703125 58.83203125 C13.6022998 58.85821533 12.99756836 58.88439941 12.37451172 58.91137695 C9.61062028 59.01588941 6.84714525 59.08052398 4.08203125 59.14453125 C3.13070312 59.18642578 2.179375 59.22832031 1.19921875 59.27148438 C-6.75802614 59.40963099 -6.75802614 59.40963099 -10.41015625 56.4375 C-13.50225333 53.05646926 -13.91901139 51.65501613 -13.85546875 47.20703125 C-13.84644531 46.38976563 -13.83742188 45.5725 -13.828125 44.73046875 C-13.81652344 44.10398438 -13.80492188 43.4775 -13.79296875 42.83203125 C-14.88182373 42.87130737 -14.88182373 42.87130737 -15.99267578 42.91137695 C-19.30088416 43.01569935 -22.60874595 43.08046997 -25.91796875 43.14453125 C-27.63113281 43.20737305 -27.63113281 43.20737305 -29.37890625 43.27148438 C-38.88303258 43.40962575 -38.88303258 43.40962575 -42.53515625 40.4375 C-46.05892953 36.3711388 -46.18277346 33.63954435 -46.15234375 28.3828125 C-45.57336841 24.27334621 -43.79381946 22.61853548 -40.79296875 19.83203125 C-37.83632356 18.35370865 -35.05067138 18.77170342 -31.79296875 18.83203125 C-31.73109375 17.65640625 -31.66921875 16.48078125 -31.60546875 15.26953125 C-30.84078739 9.49873589 -28.36169968 5.99172859 -23.953125 2.28515625 C-16.95673072 -2.35304927 -7.78481164 -3.25546669 0 0 Z M-23.79296875 9.83203125 C-26.56861867 14.04027468 -27.29451187 17.84746243 -27.79296875 22.83203125 C-28.39625 22.8578125 -28.99953125 22.88359375 -29.62109375 22.91015625 C-33.45118046 23.18196886 -36.10312604 23.37774459 -39.35546875 25.51953125 C-41.25835661 28.58069868 -41.38371954 30.2875265 -40.79296875 33.83203125 C-38.56090444 36.67983744 -37.24303876 37.68200791 -33.79296875 38.83203125 C-29.98478419 39.08894649 -26.17140524 39.06336 -22.35546875 39.08203125 C-21.30552734 39.10265625 -20.25558594 39.12328125 -19.17382812 39.14453125 C-18.16255859 39.1496875 -17.15128906 39.15484375 -16.109375 39.16015625 C-14.72407593 39.1741748 -14.72407593 39.1741748 -13.31079102 39.18847656 C-10.3285272 38.76628077 -9.11119754 37.68756645 -6.79296875 35.83203125 C-3.04296875 35.14453125 -3.04296875 35.14453125 0.20703125 34.83203125 C0.38878906 34.24035156 0.57054687 33.64867188 0.7578125 33.0390625 C3.26748864 25.14967032 5.24278848 20.77613935 12.77734375 16.8359375 C16.30118567 15.37994494 19.41137793 15.03906689 23.20703125 14.83203125 C21.95726369 11.17886454 21.53604372 10.05137289 18.20703125 7.83203125 C16.254885 7.51724548 16.254885 7.51724548 14.20703125 7.58203125 C13.52640625 7.576875 12.84578125 7.57171875 12.14453125 7.56640625 C9.88287118 7.73285522 9.88287118 7.73285522 7.20703125 9.83203125 C3.33386391 9.57382009 1.11093343 7.21472022 -1.79296875 4.83203125 C-10.3677624 1.9737667 -17.59498712 3.17719594 -23.79296875 9.83203125 Z M8.20703125 25.83203125 C5.43138133 30.04027468 4.70548813 33.84746243 4.20703125 38.83203125 C3.60375 38.8578125 3.00046875 38.88359375 2.37890625 38.91015625 C-1.45118046 39.18196886 -4.10312604 39.37774459 -7.35546875 41.51953125 C-9.25835661 44.58069868 -9.38371954 46.2875265 -8.79296875 49.83203125 C-6.56090444 52.67983744 -5.24303876 53.68200791 -1.79296875 54.83203125 C1.13892589 55.15452834 4.07211866 55.20120594 7.01953125 55.26953125 C7.81423828 55.31529297 8.60894531 55.36105469 9.42773438 55.40820312 C14.0060312 55.52151444 14.0060312 55.52151444 17.97802734 53.50048828 C19.53849355 51.90951647 19.53849355 51.90951647 20.8269043 50.22680664 C23.81824907 47.20371224 28.13338791 47.66982219 32.14453125 47.64453125 C33.16417969 47.63035156 34.18382812 47.61617187 35.234375 47.6015625 C38.33126251 47.84166285 40.45182108 48.41602602 43.20703125 49.83203125 C43.84640625 50.69828125 44.48578125 51.56453125 45.14453125 52.45703125 C49.54040605 55.86607702 53.31002729 55.34800082 58.734375 55.30078125 C62.48512466 54.79449333 64.98489062 53.79124642 68.20703125 51.83203125 C69.62744946 48.99119484 69.52155397 46.97725847 69.20703125 43.83203125 C66.97496694 40.98422506 65.65710126 39.98205459 62.20703125 38.83203125 C59.874033 38.79248891 57.53994936 38.78801393 55.20703125 38.83203125 C55.26503906 38.16816406 55.32304688 37.50429688 55.3828125 36.8203125 C55.61591328 32.2581973 55.72190369 29.63651944 53.20703125 25.70703125 C49.10169491 23.14119604 46.99540167 23.29140878 42.20703125 23.83203125 C41.21703125 24.49203125 40.22703125 25.15203125 39.20703125 25.83203125 C35.33386391 25.57382009 33.11093343 23.21472022 30.20703125 20.83203125 C21.6322376 17.9737667 14.40501288 19.17719594 8.20703125 25.83203125 Z M30.20703125 50.83203125 C29.87703125 51.82203125 29.54703125 52.81203125 29.20703125 53.83203125 C25.64453125 55.01953125 25.64453125 55.01953125 22.20703125 55.83203125 C21.87703125 57.81203125 21.54703125 59.79203125 21.20703125 61.83203125 C20.21703125 62.16203125 19.22703125 62.49203125 18.20703125 62.83203125 C18.20703125 64.15203125 18.20703125 65.47203125 18.20703125 66.83203125 C19.19703125 67.16203125 20.18703125 67.49203125 21.20703125 67.83203125 C22.39453125 71.39453125 22.39453125 71.39453125 23.20703125 74.83203125 C25.18703125 75.16203125 27.16703125 75.49203125 29.20703125 75.83203125 C29.53703125 76.82203125 29.86703125 77.81203125 30.20703125 78.83203125 C31.52703125 78.83203125 32.84703125 78.83203125 34.20703125 78.83203125 C34.53703125 77.84203125 34.86703125 76.85203125 35.20703125 75.83203125 C38.76953125 74.64453125 38.76953125 74.64453125 42.20703125 73.83203125 C42.53703125 71.85203125 42.86703125 69.87203125 43.20703125 67.83203125 C44.19703125 67.50203125 45.18703125 67.17203125 46.20703125 66.83203125 C46.20703125 65.51203125 46.20703125 64.19203125 46.20703125 62.83203125 C45.21703125 62.50203125 44.22703125 62.17203125 43.20703125 61.83203125 C42.01953125 58.26953125 42.01953125 58.26953125 41.20703125 54.83203125 C38.23703125 54.33703125 38.23703125 54.33703125 35.20703125 53.83203125 C34.87703125 52.84203125 34.54703125 51.85203125 34.20703125 50.83203125 C32.88703125 50.83203125 31.56703125 50.83203125 30.20703125 50.83203125 Z M-37.79296875 68.83203125 C-37.96829164 71.70091706 -38.02434489 74.4719577 -37.98828125 77.33984375 C-37.98545135 78.18046356 -37.98262146 79.02108337 -37.97970581 79.88717651 C-37.96849305 82.57727171 -37.94338678 85.26703635 -37.91796875 87.95703125 C-37.90794035 89.77864103 -37.89881426 91.60025602 -37.890625 93.421875 C-37.87024997 97.8921575 -37.83110408 102.36172351 -37.79296875 106.83203125 C-27.89296875 106.83203125 -17.99296875 106.83203125 -7.79296875 106.83203125 C-7.79296875 107.49203125 -7.79296875 108.15203125 -7.79296875 108.83203125 C-5.15296875 108.83203125 -2.51296875 108.83203125 0.20703125 108.83203125 C0.20703125 108.17203125 0.20703125 107.51203125 0.20703125 106.83203125 C10.10703125 106.83203125 20.00703125 106.83203125 30.20703125 106.83203125 C30.20703125 98.91203125 30.20703125 90.99203125 30.20703125 82.83203125 C27.23703125 81.84203125 24.26703125 80.85203125 21.20703125 79.83203125 C16.13337697 76.05377806 15.54520747 72.7068049 14.20703125 66.83203125 C7.12291503 66.78144599 0.03884513 66.74634631 -7.04541016 66.72216797 C-9.45688619 66.71209171 -11.86834997 66.69843044 -14.27978516 66.68115234 C-17.7399396 66.65697535 -21.19993295 66.64556456 -24.66015625 66.63671875 C-26.28520584 66.62123489 -26.28520584 66.62123489 -27.94308472 66.60543823 C-28.94397125 66.60528717 -29.94485779 66.60513611 -30.97607422 66.60498047 C-31.85987762 66.60053925 -32.74368103 66.59609802 -33.65426636 66.59152222 C-36.00778327 66.63107404 -36.00778327 66.63107404 -37.79296875 68.83203125 Z M-40.79296875 110.83203125 C-40.13296875 112.15203125 -39.47296875 113.47203125 -38.79296875 114.83203125 C-15.69296875 114.83203125 7.40703125 114.83203125 31.20703125 114.83203125 C31.86703125 113.51203125 32.52703125 112.19203125 33.20703125 110.83203125 C23.63703125 110.83203125 14.06703125 110.83203125 4.20703125 110.83203125 C4.20703125 111.49203125 4.20703125 112.15203125 4.20703125 112.83203125 C-1.07296875 112.83203125 -6.35296875 112.83203125 -11.79296875 112.83203125 C-11.79296875 112.17203125 -11.79296875 111.51203125 -11.79296875 110.83203125 C-21.36296875 110.83203125 -30.93296875 110.83203125 -40.79296875 110.83203125 Z " fill="#FFD76A" transform="translate(49.79296875,5.16796875)"/>
<path d="M0 0 C1.32 0 2.64 0 4 0 C4.12406007 4.03825066 4.21455045 8.07575638 4.2746582 12.11547852 C4.29972617 13.48807102 4.33379082 14.86053102 4.37719727 16.23266602 C4.43817531 18.21050696 4.46361009 20.18934184 4.48828125 22.16796875 C4.51446533 23.35672607 4.54064941 24.5454834 4.56762695 25.77026367 C3.8248119 29.99680143 2.39114266 31.44060221 -1 34 C-3.49536133 34.56762695 -3.49536133 34.56762695 -6.08203125 34.48828125 C-7.01337891 34.47216797 -7.94472656 34.45605469 -8.90429688 34.43945312 C-10.34385742 34.37661133 -10.34385742 34.37661133 -11.8125 34.3125 C-12.79154297 34.28994141 -13.77058594 34.26738281 -14.77929688 34.24414062 C-17.18777455 34.18539727 -19.59309078 34.10332129 -22 34 C-22 32.68 -22 31.36 -22 30 C-20.89140625 29.95101562 -19.7828125 29.90203125 -18.640625 29.8515625 C-17.17705935 29.77650785 -15.71351888 29.70096119 -14.25 29.625 C-13.15558594 29.57859375 -13.15558594 29.57859375 -12.0390625 29.53125 C-6.68916063 29.30015257 -6.68916063 29.30015257 -2 27 C-0.98412022 23.95236066 -0.80195594 21.65281033 -0.68359375 18.45703125 C-0.64169922 17.38388672 -0.59980469 16.31074219 -0.55664062 15.20507812 C-0.51732422 14.08552734 -0.47800781 12.96597656 -0.4375 11.8125 C-0.39431641 10.68134766 -0.35113281 9.55019531 -0.30664062 8.38476562 C-0.20050901 5.58996646 -0.09845615 2.79507838 0 0 Z " fill="#FFD76B" transform="translate(110,68)"/>
<path d="M0 0 C2.5 1.5 2.5 1.5 4 4 C4.791013 8.02098277 4.62153384 10.96411027 2.5 14.5 C-1.03588973 16.62153384 -3.97901723 16.791013 -8 16 C-10.5 14.5 -10.5 14.5 -12 12 C-12.791013 7.97901723 -12.62153384 5.03588973 -10.5 1.5 C-6.96411027 -0.62153384 -4.02098277 -0.791013 0 0 Z M-6 5 C-6.33 6.65 -6.66 8.3 -7 10 C-4.525 10.495 -4.525 10.495 -2 11 C-1.67 9.35 -1.34 7.7 -1 6 C-2.65 5.67 -4.3 5.34 -6 5 Z " fill="#FFD76B" transform="translate(86,62)"/>
<path d="M0 0 C1.32 0 2.64 0 4 0 C4 1.32 4 2.64 4 4 C2.68 4 1.36 4 0 4 C0 2.68 0 1.36 0 0 Z " fill="#FFD76B" transform="translate(52,90)"/>
<path d="M0 0 C1.32 0 2.64 0 4 0 C4 1.32 4 2.64 4 4 C2.68 4 1.36 4 0 4 C0 2.68 0 1.36 0 0 Z " fill="#FFD76B" transform="translate(44,90)"/>
<path d="M0 0 C1.32 0 2.64 0 4 0 C4 1.32 4 2.64 4 4 C2.68 4 1.36 4 0 4 C0 2.68 0 1.36 0 0 Z " fill="#FFD76B" transform="translate(36,90)"/>
</svg>
